<?xml version="1.0" ?><!DOCTYPE svg  PUBLIC '-//W3C//DTD SVG 1.1//EN'  'http://www.w3.org/Graphics/SVG/1.1/DTD/svg11.dtd'><svg enable-background="new 0 0 100 100" height="100px" version="1.1" viewBox="0 0 100 100" width="100px" xml:space="preserve" xmlns="http://www.w3.org/2000/svg" xmlns:xlink="http://www.w3.org/1999/xlink"><g id="white_exp"><path d="M73.878,83.072C73.954,82.726,74,82.369,74,82c0-2.506-1.859-4.567-4.267-4.926c-0.271-0.754-0.567-1.482-0.878-2.233   c-2-4.832-4.718-11.416-4.849-37.842C66.76,36.996,69,34.755,69,32c0-0.629-0.13-1.226-0.343-1.781C70.06,29.333,71,27.778,71,26   V16v-6V8H60v6h-2V8H42v6h-2V8H29v2v6v10c0,1.778,0.94,3.333,2.343,4.219C31.13,30.774,31,31.371,31,32c0,2.755,2.24,4.996,4.994,5   c-0.131,26.426-2.85,33.01-4.849,37.842c-0.311,0.751-0.606,1.479-0.878,2.233C27.859,77.433,26,79.494,26,82   c0,0.369,0.046,0.726,0.122,1.072C23.229,83.499,21,85.99,21,89c0,3.309,2.691,6,6,6h46c3.309,0,6-2.691,6-6   C79,85.99,76.771,83.499,73.878,83.072z M30,82c0-0.542,0.458-1,1-1h38c0.542,0,1,0.458,1,1s-0.458,1-1,1H31   C30.458,83,30,82.542,30,82z M33,12h3v6h10v-6h8v6h10v-6h3v4v10c0,0.542-0.458,1-1,1H34c-0.542,0-1-0.458-1-1V16V12z M35,32   c0-0.542,0.458-1,1-1h28c0.542,0,1,0.458,1,1s-0.458,1-1,1H36C35.458,33,35,32.542,35,32z M39.995,37h20.01   c0.135,27.239,3.028,34.233,5.154,39.371c0.091,0.22,0.169,0.419,0.255,0.629H34.586c0.085-0.209,0.164-0.409,0.255-0.629   C36.967,71.233,39.86,64.239,39.995,37z M73,91H27c-1.103,0-2-0.897-2-2s0.897-2,2-2h46c1.103,0,2,0.897,2,2S74.103,91,73,91z"/></g><g id="black_exp"/></svg>