<?xml version="1.0" encoding="UTF-8"?>
<!DOCTYPE svg PUBLIC "-//W3C//DTD SVG 1.0//EN" "http://www.w3.org/TR/2001/REC-SVG-20010904/DTD/svg10.dtd">
<svg
   xmlns:svg="http://www.w3.org/2000/svg"
   xmlns="http://www.w3.org/2000/svg"
   xmlns:xlink="http://www.w3.org/1999/xlink"
   version="1.0"
   width="64"
   height="64"
   viewBox="0 0 504 504">
  <path
     d="M 405,432.5 L 405,423 L 252,423 L 99,423 L 99,432.5 L 99,442 L 252,442 L 405,442 L 405,432.5 z M 380,393 L 380,381 L 252,381 L 124,381 L 124,393 L 124,405 L 252,405 L 380,405 L 380,393 z M 366.32258,360.68723 C 365.32016,359.4152 359.775,353.34041 354,347.18769 L 343.5,336.00092 L 251.92279,336.00046 L 160.34559,336 L 147.59173,349.5 L 134.83788,363 L 251.49152,363 L 368.14516,363 L 366.32258,360.68723 z M 338,252 L 338,186 L 252,186 L 166,186 L 166,252 L 166,318 L 252,318 L 338,318 L 338,252 z M 357.27451,158.75 L 369.41151,149.5 L 310.70576,149.24201 C 278.41759,149.10011 225.60985,149.10011 193.35523,149.24201 L 134.71046,149.5 L 146.60523,158.69906 L 158.5,167.89812 L 251.81876,167.94906 L 345.13752,168 L 357.27451,158.75 z M 387,106.5 L 387,82 L 367.58156,82 L 348.16311,82 L 347.83156,94.475035 C 347.34603,112.74317 349.85583,111.42751 314.79063,111.79546 C 294.73826,112.00588 285.80936,111.74946 283.76971,110.90461 C 279.13708,108.98571 278,105.46689 278,93.04966 L 278,82 L 252,82 L 226,82 L 226,93.944236 C 226,105.12651 225.84613,106.06746 223.58792,108.69424 L 221.17585,111.5 L 192.90479,111.79546 C 172.76452,112.00595 163.81003,111.74974 161.76971,110.90461 C 157.13708,108.98571 156,105.46689 156,93.04966 L 156,82 L 136.5,82 L 117,82 L 117,106.5 L 117,131 L 252,131 L 387,131 L 387,106.5 z"
     style="fill:#ffffff" />
  <path
     d="M 85.888053,458.50526 C 81.352427,456.03168 80.856506,453.08121 81.191477,430.56309 L 81.5,409.82297 L 84.305764,407.41149 C 86.842617,405.23112 88.016684,405 96.555764,405 L 106,405 L 106.00374,387.25 C 106.00707,371.41774 106.2161,369.17588 107.93846,366.5 C 109.0005,364.85 118.43333,354.5 128.90032,343.5 L 147.93119,323.5 L 147.95723,252.5 L 147.98328,181.5 L 124.44755,163.60187 C 111.5029,153.7579 100.48166,144.89999 99.955909,143.91761 C 99.400088,142.87905 99,127.4342 99,107.01608 C 99,68.6034 99.162979,67.417773 104.76206,65.098557 C 106.80504,64.252327 116.35062,63.998642 138.28282,64.207703 C 176.25407,64.56965 173.34324,63.151662 173.83156,81.524965 L 174.16311,94 L 191.08156,94 L 208,94 L 208,83.467881 C 208,71.239946 209.33213,66.933495 213.67052,65.136474 C 215.81593,64.247816 226.41728,64.00397 253.76679,64.214203 C 299.29438,64.564169 295.3375,62.935808 295.83156,81.524965 L 296.16311,94 L 313.08156,94 L 330,94 L 330,82.95034 C 330,70.537918 331.13737,67.014167 335.76206,65.098557 C 337.80504,64.252327 347.35062,63.998642 369.28282,64.207703 C 399.67066,64.497364 399.96772,64.520532 402.2236,66.776719 C 404.49803,69.051468 404.50025,69.085109 404.78597,105.64735 C 405.02229,135.88729 404.82617,142.61099 403.65647,144.37063 C 402.87795,145.54178 391.84071,154.375 379.12925,164 L 356.0175,181.5 L 356.01211,252.5 L 356.00671,323.5 L 376.11598,344.98113 C 387.17608,356.79575 396.62457,367.51255 397.11263,368.79623 C 397.60068,370.07991 398,378.70874 398,387.97139 L 398,404.81259 L 407.97423,405.15629 C 423.09757,405.67744 422.5,404.55256 422.5,432.5 C 422.5,454.52325 422.45726,454.98719 420.2223,457.22222 L 417.94459,459.5 L 253.2223,459.71487 C 112.28445,459.89871 88.122858,459.72406 85.888053,458.50526 z M 405,432.5 L 405,423 L 252,423 L 99,423 L 99,432.5 L 99,442 L 252,442 L 405,442 L 405,432.5 z M 380,393 L 380,381 L 252,381 L 124,381 L 124,393 L 124,405 L 252,405 L 380,405 L 380,393 z M 366.32258,360.68723 C 365.32016,359.4152 359.775,353.34041 354,347.18769 L 343.5,336.00092 L 251.92279,336.00046 L 160.34559,336 L 147.59173,349.5 L 134.83788,363 L 251.49152,363 L 368.14516,363 L 366.32258,360.68723 z M 338,252 L 338,186 L 252,186 L 166,186 L 166,252 L 166,318 L 252,318 L 338,318 L 338,252 z M 357.27451,158.75 L 369.41151,149.5 L 310.70576,149.24201 C 278.41759,149.10011 225.60985,149.10011 193.35523,149.24201 L 134.71046,149.5 L 146.60523,158.69906 L 158.5,167.89812 L 251.81876,167.94906 L 345.13752,168 L 357.27451,158.75 z M 387,106.5 L 387,82 L 367.58156,82 L 348.16311,82 L 347.83156,94.475035 C 347.34603,112.74317 349.85583,111.42751 314.79063,111.79546 C 294.73826,112.00588 285.80936,111.74946 283.76971,110.90461 C 279.13708,108.98571 278,105.46689 278,93.04966 L 278,82 L 252,82 L 226,82 L 226,93.944236 C 226,105.12651 225.84613,106.06746 223.58792,108.69424 L 221.17585,111.5 L 192.90479,111.79546 C 172.76452,112.00595 163.81003,111.74974 161.76971,110.90461 C 157.13708,108.98571 156,105.46689 156,93.04966 L 156,82 L 136.5,82 L 117,82 L 117,106.5 L 117,131 L 252,131 L 387,131 L 387,106.5 z "
     style="fill:#000000" />
</svg>
