<?xml version="1.0" ?><!DOCTYPE svg  PUBLIC '-//W3C//DTD SVG 1.1//EN'  'http://www.w3.org/Graphics/SVG/1.1/DTD/svg11.dtd'><svg enable-background="new 0 0 100 100" height="100px" version="1.1" viewBox="0 0 100 100" width="100px" xml:space="preserve" xmlns="http://www.w3.org/2000/svg" xmlns:xlink="http://www.w3.org/1999/xlink"><g id="white_exp"/><g id="black_exp"><path d="M31.375,40.219l1.249,1.562l-5.475,4.379C27.676,48.357,29.645,50,32,50c2.527,0,4.622-1.884,4.954-4.321l5.849-2.507   c2.944,2.45,7.337,2.296,10.097-0.465c2.924-2.924,2.924-7.682,0-10.606l0.707-0.707c1.605,1.605,2.49,3.74,2.49,6.01   c0,1.329-0.311,2.608-0.884,3.765l0,0c-0.196,0.396-0.425,0.775-0.681,1.139c-0.024,0.034-0.05,0.066-0.074,0.1   c-0.256,0.353-0.536,0.692-0.851,1.007c-0.276,0.276-0.57,0.523-0.873,0.752c-0.07,0.053-0.143,0.101-0.213,0.151   c-0.252,0.178-0.51,0.343-0.775,0.492c-1.508,0.843-3.216,1.203-4.894,1.057C45.944,52.159,40.545,57,34,57l2,22h28   c0-9.957,2.698-18.563,5.535-25.822C64.908,57.412,58.751,60,52,60v-1c13.785,0,25-11.215,25-25S65.785,9,52,9h-1v10h-1v-4h-7   c-3.866,0-7,3.134-7,7c0,1.831-16,7.76-16,16c0,3.38,2.395,6.199,5.58,6.855L31.375,40.219z M45.485,20.143l1.029,1.715l-5,3   l-1.029-1.715L45.485,20.143z M23.445,38.168l3-2l1.109,1.664l-3,2L23.445,38.168z M69,80c1.1,0,2,0.9,2,2s-0.9,2-2,2H31   c-1.1,0-2-0.9-2-2s0.9-2,2-2H69z M76,89c0,2.2-1.8,4-4,4H28c-2.2,0-4-1.8-4-4s1.8-4,4-4h44C74.2,85,76,86.8,76,89z"/></g></svg>