<?xml version="1.0" ?><!DOCTYPE svg  PUBLIC '-//W3C//DTD SVG 1.1//EN'  'http://www.w3.org/Graphics/SVG/1.1/DTD/svg11.dtd'><svg enable-background="new 0 0 100 100" height="100px" version="1.1" viewBox="0 0 100 100" width="100px" xml:space="preserve" xmlns="http://www.w3.org/2000/svg" xmlns:xlink="http://www.w3.org/1999/xlink"><g id="white_exp"><path d="M69.878,83.072C69.954,82.726,70,82.369,70,82c0-2.757-2.243-5-5-5h-0.701c-0.146-0.783-0.308-1.559-0.48-2.377   c-1.07-5.061-2.495-11.818-2.771-33.738C63.303,40.402,65,38.397,65,36c0-2.125-1.338-3.932-3.211-4.655l6.075-15.62l-3.729-1.45   l-0.981,2.523c-2.042-0.88-4.895-1.338-7.588-1.571C55.844,14.538,56,13.787,56,13c0-3.309-2.691-6-6-6s-6,2.691-6,6   c0,0.787,0.156,1.538,0.434,2.227c-2.693,0.232-5.546,0.691-7.588,1.571l-0.981-2.523l-3.729,1.45l6.075,15.62   C36.338,32.068,35,33.875,35,36c0,2.397,1.697,4.402,3.952,4.885c-0.275,21.92-1.7,28.677-2.771,33.738   c-0.173,0.818-0.334,1.594-0.48,2.377H35c-2.757,0-5,2.243-5,5c0,0.369,0.046,0.726,0.122,1.072C27.229,83.499,25,85.99,25,89   c0,3.309,2.691,6,6,6h38c3.309,0,6-2.691,6-6C75,85.99,72.771,83.499,69.878,83.072z M40,37c-0.542,0-1-0.458-1-1s0.458-1,1-1h20   c0.542,0,1,0.458,1,1s-0.458,1-1,1H40z M42.368,31l-2.333-6h19.93l-2.333,6H42.368z M48,13c0-1.103,0.897-2,2-2s2,0.897,2,2   s-0.897,2-2,2S48,14.103,48,13z M50,19c6.18,0,10.222,0.844,11.723,1.48L61.521,21H38.479l-0.202-0.52   C39.778,19.844,43.82,19,50,19z M40.096,75.451C41.198,70.234,42.667,63.267,42.95,41h14.1c0.283,22.267,1.752,29.234,2.854,34.451   c0.114,0.54,0.22,1.046,0.32,1.549H39.775C39.876,76.497,39.981,75.99,40.096,75.451z M35,81h30c0.542,0,1,0.458,1,1s-0.458,1-1,1   H35c-0.542,0-1-0.458-1-1S34.458,81,35,81z M69,91H31c-1.103,0-2-0.897-2-2s0.897-2,2-2h38c1.103,0,2,0.897,2,2S70.103,91,69,91z"/></g><g id="black_exp"/></svg>