<?xml version="1.0" ?><!DOCTYPE svg  PUBLIC '-//W3C//DTD SVG 1.1//EN'  'http://www.w3.org/Graphics/SVG/1.1/DTD/svg11.dtd'><svg enable-background="new 0 0 100 100" height="100px" version="1.1" viewBox="0 0 100 100" width="100px" xml:space="preserve" xmlns="http://www.w3.org/2000/svg" xmlns:xlink="http://www.w3.org/1999/xlink"><g id="white_exp"/><g id="black_exp"><path d="M37,40c0-1.1,0.9-2,2-2h22c1.1,0,2,0.9,2,2s-0.9,2-2,2H39C37.9,42,37,41.1,37,40z M34,84h32c1.1,0,2-0.9,2-2s-0.9-2-2-2H34   c-1.1,0-2,0.9-2,2S32.9,84,34,84z M69,85H31c-2.2,0-4,1.8-4,4s1.8,4,4,4h38c2.2,0,4-1.8,4-4S71.2,85,69,85z M40.95,43   c-0.358,27.587-2.586,30.262-3.528,36h25.156c-0.942-5.738-3.17-8.413-3.528-36H40.95z M59,37c0,0,4-6,4-11   c0-4.411-10.112-13.489-12.496-19h-1.008c-0.871,2.015-2.776,4.506-4.842,7.072l4.24,8.48l-1.789,0.895l-3.834-7.668   C40.1,19.685,37,23.558,37,26c0,5,4,11,4,11H59z"/></g></svg>